<svg width="160" height="131" viewBox="0 0 160 131" fill="none" xmlns="http://www.w3.org/2000/svg">
<path d="M12.9612 51.9443C14.3261 52.2453 15.6919 52.5426 17.0557 52.8482C18.5582 53.1849 20.0589 53.5292 21.5049 53.9626C20.8367 53.9965 20.2241 53.9381 19.6115 53.8796C26.486 55.7062 33.4238 56.5947 40.7395 55.496C40.1915 55.0044 39.8598 54.4448 39.4398 54.3679C23.9634 51.5375 12.1251 43.7134 5.32111 29.2174C1.68788 21.4767 0.566326 13.2422 1.63182 4.74359C1.75648 3.74929 2.1358 2.78692 2.45456 1.59473C3.13165 2.0475 3.57521 2.33213 4.00635 2.63449C5.8936 3.95805 7.72742 5.36518 9.67075 6.60014C18.452 12.1805 27.4422 17.4014 37.0584 21.4217C43.1835 23.9824 49.377 26.3968 55.6225 28.6475C62.7508 31.2163 70.2192 31.9339 77.746 32.0583C85.5195 32.1867 93.2938 32.283 101.068 32.3229C104.318 32.3396 107.569 32.1211 110.82 32.1029C118.057 32.0626 125.295 32.0617 132.532 32.0815C138.625 32.0982 144.068 36.9076 144.581 42.9615C144.957 47.4081 145 51.884 145.146 56.3483C145.201 58.0296 145.057 58.1318 143.396 58.1338C138.149 58.14 132.901 58.1797 127.655 58.1205C123.429 58.0727 119.729 59.5907 116.482 62.0654C109.645 67.2767 107.043 74.3434 108.291 82.7521C109.803 92.9455 118.638 100.744 129.31 101.029C134.504 101.167 139.701 101.223 144.897 101.441C144.821 103.369 144.706 105.171 144.675 106.974C144.626 109.899 144.97 112.875 144.551 115.743C143.32 124.173 138.108 128.988 129.682 129.229C120.782 129.484 111.874 129.518 102.97 129.509C89.1353 129.495 75.3011 129.355 61.4666 129.284C56.3106 129.257 51.1538 129.312 45.9983 129.252C42.8423 129.215 39.9369 128.209 37.3776 126.385C31.6606 122.31 30.3644 116.423 30.6908 109.86C30.8275 107.112 30.7643 104.354 30.7961 101.6C30.8487 97.0452 30.9039 92.4905 30.9652 87.9358C30.9662 87.8619 31.0592 87.7892 31.2159 87.5598C36.8855 88.7935 42.6595 89.899 48.602 88.2427C49.5594 87.4538 49.1062 87.0571 48.2508 86.9317C40.2885 85.7649 32.8112 83.2469 25.9346 79.0199C21.8632 76.5173 18.2421 73.4718 15.1619 69.8301C10.7372 64.5987 7.89787 58.5373 6.15374 51.9418C6.03434 51.4903 6.00751 51.0143 5.89067 50.2375C7.34501 50.714 8.51401 51.157 9.71553 51.4785C12.412 52.1999 15.1247 52.8609 17.89 53.5925C18.1227 53.659 18.2962 53.6794 18.4697 53.6999C18.4716 53.6492 18.4735 53.5985 18.4754 53.5478C18.2718 53.533 18.0682 53.5181 17.7819 53.4457C16.1199 52.9068 14.5406 52.4255 12.9612 51.9443Z" fill="#2CACEA"/>
<path d="M144.896 101.315C139.701 101.222 134.505 101.167 129.31 101.028C118.638 100.744 109.803 92.9451 108.291 82.7516C107.043 74.3429 109.645 67.2763 116.482 62.065C119.729 59.5902 123.429 58.0723 127.655 58.12C132.901 58.1793 138.149 58.1396 143.396 58.1333C145.057 58.1314 145.201 58.0292 145.146 56.3479C145 51.8835 144.957 47.4076 144.581 42.961C144.068 36.9071 138.625 32.0977 132.532 32.081C125.295 32.0613 118.057 32.0621 110.82 32.1025C107.569 32.1206 104.318 32.3391 101.068 32.3224C93.2938 32.2825 85.5195 32.1862 77.746 32.0578C70.2192 31.9334 62.7508 31.2158 55.6225 28.647C49.377 26.3963 43.1835 23.9819 37.0584 21.4212C27.4422 17.4009 18.452 12.18 9.67076 6.59967C7.72742 5.36471 5.8936 3.95758 4.00635 2.63402C3.57522 2.33166 3.13165 2.04702 2.45456 1.59426C2.1358 2.78645 1.75648 3.74882 1.63182 4.74312C0.566328 13.2418 1.68788 21.4763 5.32111 29.2169C12.1251 43.713 23.9634 51.537 39.4398 54.3675C39.8598 54.4443 40.1915 55.0039 40.7395 55.4955C33.4238 56.5942 26.486 55.7057 19.6115 53.8791C20.2241 53.9376 20.8367 53.9961 21.5594 54.0534C21.6696 54.0523 21.7971 54.0698 21.9459 54.1402C23.594 54.5139 25.0814 54.9239 26.5957 55.0902C28.0937 55.2548 29.6188 55.1734 31.1321 55.1999C31.3393 55.1863 31.5466 55.1727 31.908 55.2689C33.5887 55.8167 35.1081 56.0743 36.5822 55.1984C36.7041 55.1853 36.8259 55.1722 37.1251 55.2242C37.7772 55.2363 38.2521 55.1834 38.7269 55.1305C36.1662 54.4164 33.5674 53.8133 31.0563 52.9541C28.9196 52.2229 26.7688 51.3931 24.8298 50.2562C21.7224 48.4341 18.7238 46.407 15.8013 44.2974C14.3089 43.2201 12.9402 41.892 11.7669 40.4699C9.81808 38.1081 7.80375 35.7295 6.31632 33.0779C4.85181 30.4672 3.87318 27.5527 2.93071 24.6894C2.04081 21.9858 1.46491 19.178 0.779125 16.409C0.683897 16.0245 0.750538 15.6 0.812564 14.9771C0.849639 11.759 0.816391 8.75773 0.783135 5.75646C1.09159 4.13476 1.40004 2.51305 1.74559 0.696289C2.44834 0.895843 2.95683 0.921336 3.32228 1.16307C5.90472 2.8713 8.434 4.66039 11.0269 6.3522C13.6659 8.0741 16.326 9.76865 19.0371 11.3734C21.3457 12.7398 23.7419 13.9581 26.0957 15.2487C27.7494 16.1554 29.3877 17.0905 31.0509 17.9792C31.8927 18.4289 32.7692 18.8154 33.6392 19.2104C35.721 20.1554 37.7879 21.1373 39.8982 22.0146C42.8213 23.2298 45.7679 24.3908 48.7248 25.5217C50.9597 26.3764 53.1974 27.245 55.487 27.93C58.0404 28.6939 60.6538 29.2571 63.3912 30.0094C66.0693 30.978 68.6524 31.3827 71.3248 31.0369C71.4457 31.0239 71.5667 31.0109 71.8304 31.1064C74.2869 31.2467 76.6007 31.2786 78.9144 31.3104C79.4779 31.2969 80.0413 31.2834 80.8231 31.3373C82.8849 31.534 84.7281 31.7697 86.572 31.7752C98.3796 31.8106 110.187 31.818 121.995 31.7751C124.013 31.7677 126.03 31.4741 128.048 31.3127C131.252 31.2847 134.486 30.8664 137.539 32.3495C140.512 33.7932 142.687 35.908 144.159 38.9322C145.461 41.6043 145.596 44.3991 145.685 47.214C145.803 50.9628 145.714 54.7181 145.714 58.6828C145.194 58.6828 144.72 58.6828 144.246 58.6829C139.18 58.6832 134.114 58.7321 129.048 58.6708C123.66 58.6057 119.04 60.5958 115.066 64.0256C112.227 66.4765 110.325 69.7729 109.435 73.3481C108.214 78.2514 108.425 83.2446 110.548 87.9596C111.702 90.5203 113.494 92.6156 115.471 94.6482C117.556 96.7924 120.281 97.7587 122.646 99.3593C123.14 99.6936 123.932 99.5866 124.767 99.7772C126.697 100.167 128.442 100.676 130.199 100.719C135.006 100.838 139.817 100.761 144.659 100.83C144.761 101.038 144.829 101.177 144.896 101.315Z" fill="#0A9CE7"/>
<path d="M144.897 101.44C144.829 101.176 144.761 101.038 144.709 100.798C144.79 100.651 144.848 100.599 144.9 100.539C145.066 100.556 145.232 100.572 145.393 100.769C145.319 101.568 145.189 102.186 145.187 102.804C145.169 107.022 145.179 111.24 145.179 115.458C145.258 117.793 144.315 119.808 143.321 121.852C141.785 125.012 139.408 127.3 136.204 128.526C134.094 129.334 131.771 130.011 129.542 130.019C101.869 130.118 74.1949 130.124 46.5218 130.035C42.632 130.023 39.0383 128.745 35.9429 126.115C31.9294 122.706 30.0826 118.416 30.0639 113.254C30.0393 106.471 30.0568 99.6882 30.0572 92.9055C30.0574 91.2372 30.0521 89.5687 30.0673 87.9005C30.0783 86.6899 30.4653 86.4127 31.663 86.7291C32.6363 86.9862 33.6066 87.2545 34.6972 87.6628C35.1347 87.7971 35.4532 87.7865 35.7718 87.7758C35.9681 87.7623 36.1644 87.7487 36.4504 87.8328C36.6609 88.0375 36.777 88.2317 36.9031 88.2383C39.2631 88.3631 41.6251 88.5587 43.985 88.5392C45.4984 88.5267 47.0092 88.1901 48.5208 88.0637C48.5204 88.1285 48.5194 88.2581 48.5194 88.2581C42.6599 89.8982 36.8859 88.7928 31.2163 87.559C31.0596 87.7885 30.9666 87.8611 30.9656 87.9351C30.9043 92.4897 30.849 97.0444 30.7964 101.599C30.7647 104.353 30.8278 107.111 30.6912 109.859C30.3648 116.422 31.661 122.31 37.378 126.384C39.9373 128.209 42.8427 129.214 45.9987 129.251C51.1542 129.312 56.3109 129.256 61.467 129.283C75.3014 129.354 89.1357 129.494 102.97 129.508C111.875 129.517 120.783 129.483 129.682 129.228C138.109 128.987 143.32 124.172 144.551 115.742C144.97 112.874 144.626 109.899 144.676 106.973C144.706 105.17 144.821 103.368 144.897 101.44Z" fill="#0799E6"/>
<path d="M70.2421 27.4202C64.6392 26.9854 59.1435 26.0798 53.6895 23.8589C54.0917 23.4756 54.2433 23.2125 54.4557 23.1474C56.3425 22.5683 58.253 22.0645 60.1313 21.4602C62.7262 20.6252 65.2892 19.6908 67.8844 18.8567C70.9046 17.886 73.9534 17.0046 76.973 16.0319C78.7266 15.467 80.44 14.7784 82.184 14.182C85.6361 13.0016 89.0935 11.8368 92.5547 10.6834C97.1905 9.13849 101.823 7.58165 106.475 6.08865C108.526 5.43069 110.592 4.69544 112.707 4.40179C114.744 4.11902 116.882 4.15166 118.926 4.42286C121.673 4.78748 124.278 5.86803 126.398 7.65412C128.633 9.53806 130.414 11.7743 131.161 14.8095C132.149 18.8283 132.146 22.8721 132.121 26.9412C132.12 27.1093 131.927 27.2762 131.606 27.3822C130.897 27.2792 130.405 27.2016 129.912 27.2014C110.551 27.1941 91.1909 27.1921 71.8303 27.2023C71.3009 27.2026 70.7715 27.3444 70.2421 27.4202ZM88.8837 12.8443C77.9557 16.4052 67.0278 19.9662 55.7993 23.6251C56.3405 23.9394 56.5449 24.1088 56.7797 24.1869C61.0446 25.6062 65.4217 26.6027 69.9132 26.6183C89.809 26.6877 109.705 26.6497 129.601 26.6505C129.873 26.6505 130.144 26.6391 130.415 26.6499C131.2 26.6813 131.507 26.4546 131.422 25.5385C131.214 23.2948 131.093 21.0368 131.069 18.7831C131.009 13.2769 127.663 8.42528 122.613 6.30245C117.726 4.24768 112.907 4.67706 108.064 6.31105C101.733 8.4474 95.4092 10.6086 88.8837 12.8443Z" fill="#0479C9"/>
<path d="M159.246 83.9316C159.172 86.801 159.254 89.6858 158.97 92.534C158.785 94.3836 156.443 96.4563 154.505 96.458C146.204 96.4656 137.903 96.7121 129.603 96.6494C124.694 96.6124 120.408 94.784 117.097 91.0149C114.307 87.8394 112.827 84.1301 112.578 79.9073C112.327 75.6362 113.682 71.8043 116.157 68.4745C117.54 66.6127 119.353 64.9958 121.478 63.8343C124.379 62.2488 127.422 61.5776 130.751 61.6329C138.164 61.7561 145.582 61.773 152.993 61.6199C156.203 61.5537 158.804 63.3457 159.187 66.796C158.976 67.3908 158.763 67.8109 158.761 68.2321C158.737 72.8217 158.727 77.4115 158.768 82.0008C158.774 82.6458 159.079 83.2881 159.246 83.9316ZM129.838 62.4834C128.714 62.5516 127.554 62.4641 126.472 62.7132C119.124 64.4038 113.003 71.1702 113.382 80.0363C113.737 88.3364 120.072 95.5013 128.498 95.8035C136.944 96.1064 145.41 95.8919 153.868 95.859C155.935 95.851 157.616 94.4975 158.142 92.5161C158.359 91.6979 158.454 90.8243 158.456 89.9755C158.481 82.5582 158.357 75.1381 158.528 67.7246C158.597 64.7357 156.166 62.3816 153.173 62.4347C145.486 62.5709 137.796 62.4819 129.838 62.4834Z" fill="#0373C8"/>
<path d="M48.6023 88.242C48.5193 88.2583 48.5204 88.1286 48.5409 87.9972C48.2642 87.8163 47.9671 87.7668 47.6699 87.7174C46.2438 87.3618 44.8118 87.0283 43.393 86.6455C41.1101 86.0297 38.8053 85.4726 36.5672 84.7198C34.5372 84.037 32.5277 83.2393 30.6111 82.2869C28.2321 81.1047 25.7951 79.9301 23.6779 78.3558C20.7542 76.1817 17.9452 73.7953 15.394 71.1982C13.5933 69.3651 12.2022 67.0952 10.8052 64.9074C8.16733 60.7762 6.60013 56.1641 5.14657 51.5203C4.93941 50.8585 4.94877 50.1289 4.80176 48.999C7.56879 49.9888 10.1742 50.9208 12.8706 51.8982C14.5409 52.4249 16.1202 52.9062 17.7735 53.4557C17.8475 53.5239 17.8311 53.5459 17.8311 53.5459C15.125 52.8603 12.4124 52.1993 9.71585 51.4778C8.51432 51.1564 7.34533 50.7133 5.89098 50.2368C6.00782 51.0136 6.03466 51.4896 6.15406 51.9412C7.89819 58.5367 10.7375 64.598 15.1622 69.8295C18.2424 73.4712 21.8635 76.5167 25.9349 79.0193C32.8116 83.2463 40.2888 85.7643 48.2511 86.9311C49.1065 87.0564 49.5597 87.4532 48.6023 88.242Z" fill="#0A9CE7"/>
<path d="M127.923 31.2941C126.03 31.4738 124.013 31.7674 121.995 31.7748C110.187 31.8177 98.3796 31.8103 86.572 31.7749C84.7281 31.7694 82.8849 31.5337 80.9424 31.3573C85.5905 31.2948 90.3379 31.238 95.0846 31.2759C99.5422 31.3114 103.999 31.5278 108.456 31.5192C114.904 31.5068 121.351 31.3634 127.923 31.2941Z" fill="#2CACEA"/>
<path d="M70.3691 27.4377C70.7723 27.3444 71.3017 27.2026 71.8311 27.2023C91.1917 27.1921 110.552 27.1942 129.913 27.2014C130.405 27.2016 130.898 27.2792 131.49 27.3714C122.197 27.4352 112.806 27.455 103.414 27.4597C92.441 27.4651 81.4682 27.4573 70.3691 27.4377Z" fill="#108ACF"/>
<path d="M159.261 83.8042C159.079 83.2874 158.774 82.6451 158.768 82.0001C158.727 77.4108 158.737 72.8209 158.761 68.2314C158.763 67.8102 158.976 67.39 159.17 66.9023C159.258 72.4494 159.267 78.0634 159.261 83.8042Z" fill="#108ACF"/>
<path d="M144.773 100.521C144.848 100.599 144.789 100.652 144.675 100.729C139.816 100.76 135.005 100.838 130.199 100.719C128.442 100.676 126.697 100.167 124.882 99.7979C131.392 100.883 138.031 100.396 144.773 100.521Z" fill="#2CACEA"/>
<path d="M145.276 115.394C145.179 111.24 145.169 107.022 145.187 102.804C145.189 102.186 145.319 101.568 145.437 100.845C145.56 101.606 145.686 102.471 145.699 103.337C145.73 105.462 145.751 107.589 145.695 109.713C145.645 111.587 145.485 113.459 145.276 115.394Z" fill="#2CACEA"/>
<path d="M47.5554 87.7246C47.9671 87.7671 48.2642 87.8165 48.5412 87.9326C47.0091 88.1905 45.4984 88.527 43.985 88.5396C41.6251 88.5591 39.2631 88.3635 36.903 88.2387C36.777 88.2321 36.6609 88.0378 36.5469 87.8547C40.186 88.5222 43.8147 88.4094 47.5554 87.7246Z" fill="#2CACEA"/>
<path d="M31.0115 55.1817C29.619 55.173 28.0939 55.2544 26.5959 55.0899C25.0816 54.9235 23.5942 54.5135 22.0068 54.1611C24.1542 54.3993 26.3887 54.6948 28.6257 54.9693C29.3773 55.0615 30.1355 55.1005 31.0115 55.1817Z" fill="#2CACEA"/>
<path d="M71.2065 31.0192C68.6525 31.3831 66.0693 30.9784 63.502 30.0225C65.1338 30.1967 66.8028 30.4743 68.4769 30.7176C69.3427 30.8434 70.2174 30.9085 71.2065 31.0192Z" fill="#2CACEA"/>
<path d="M36.456 55.1808C35.1085 56.0741 33.5891 55.8165 32.0107 55.289C33.4157 55.1874 34.8725 55.1753 36.456 55.1808Z" fill="#2CACEA"/>
<path d="M0.765593 5.88184C0.815921 8.75791 0.849169 11.7592 0.833854 14.8591C0.773033 11.9742 0.760776 8.99061 0.765593 5.88184Z" fill="#2CACEA"/>
<path d="M78.7895 31.2928C76.6007 31.2788 74.287 31.2469 71.9199 31.1268C74.1326 31.1173 76.3985 31.1961 78.7895 31.2928Z" fill="#2CACEA"/>
<path d="M38.6122 55.1406C38.2516 55.1834 37.7767 55.2363 37.2148 55.2442C37.5845 55.183 38.0412 55.1669 38.6122 55.1406Z" fill="#2CACEA"/>
<path d="M35.663 87.7585C35.4524 87.7872 35.1339 87.7978 34.75 87.7539C34.9748 87.713 35.2649 87.7267 35.663 87.7585Z" fill="#2CACEA"/>
<path d="M17.8556 53.5137C18.0679 53.5179 18.2714 53.5327 18.475 53.5475C18.4731 53.5982 18.4712 53.6489 18.4693 53.6996C18.2959 53.6792 18.1224 53.6587 17.8897 53.5923C17.8304 53.5463 17.8469 53.5243 17.8556 53.5137Z" fill="#0A9CE7"/>
<path d="M88.9834 12.801C95.4097 10.608 101.733 8.44675 108.065 6.3104C112.908 4.67641 117.726 4.24703 122.614 6.30179C127.663 8.42463 131.009 13.2762 131.069 18.7825C131.094 21.0362 131.214 23.2941 131.423 25.5379C131.508 26.4539 131.201 26.6806 130.416 26.6493C130.145 26.6385 129.873 26.6498 129.602 26.6498C109.706 26.6491 89.8095 26.6871 69.9137 26.6177C65.4222 26.602 61.0451 25.6055 56.7802 24.1863C56.5455 24.1082 56.3411 23.9388 55.7998 23.6244C67.0283 19.9655 77.9562 16.4046 88.9834 12.801Z" fill="#108ACF"/>
<path d="M129.973 62.483C137.796 62.4817 145.487 62.5707 153.173 62.4345C156.167 62.3814 158.597 64.7355 158.528 67.7244C158.358 75.1379 158.481 82.558 158.457 89.9753C158.454 90.8241 158.36 91.6977 158.143 92.5159C157.617 94.4973 155.935 95.8508 153.868 95.8588C145.411 95.8917 136.945 96.1062 128.498 95.8033C120.073 95.5011 113.738 88.3362 113.383 80.036C113.004 71.17 119.124 64.4036 126.472 62.713C127.555 62.4639 128.714 62.5514 129.973 62.483ZM126.283 73.5643C123.324 75.6951 121.983 78.9082 122.827 81.8966C123.8 85.3429 126.22 87.2139 129.644 87.6059C132.612 87.9457 135.011 86.6034 136.744 84.1977C139.178 80.8194 138.297 76.1042 134.857 73.7918C132.123 71.9537 129.328 71.7535 126.283 73.5643Z" fill="#108ACF"/>
<path d="M126.371 73.5178C129.328 71.7532 132.122 71.9535 134.856 73.7916C138.296 76.104 139.178 80.8192 136.743 84.1975C135.01 86.6032 132.612 87.9455 129.644 87.6057C126.219 87.2137 123.8 85.3427 122.826 81.8964C121.982 78.908 123.324 75.6949 126.371 73.5178ZM124.914 84.6486C125.145 84.7776 125.376 84.9065 125.688 85.2067C128.263 87.0465 130.916 87.5814 133.789 85.8239C137.685 83.4394 139.045 78.5041 135.037 74.8193C132.836 72.7956 130.113 72.4908 127.465 73.7127C125.592 74.5765 123.269 76.904 123.372 79.9611C123.432 81.7166 124.152 83.0614 124.914 84.6486Z" fill="#0479C9"/>
<path d="M124.865 84.584C125.083 84.6295 125.351 84.7398 125.613 84.9429C125.377 84.9067 125.146 84.7777 124.865 84.584Z" fill="#108ACF"/>
</svg>
