<svg width="319" height="272" viewBox="0 0 319 272" fill="none" xmlns="http://www.w3.org/2000/svg">
<path d="M42.4998 1.73775C20.9718 5.48175 4.94284 21.5108 1.66684 42.3368C-0.088164 52.8668 -0.088164 187.066 1.66684 198.181C3.30484 208.828 7.51684 220.411 13.0158 229.771C20.5038 242.29 37.1178 257.383 49.5198 262.882C54.1998 264.988 58.0608 266.626 60.6348 267.445C75.6108 272.71 99.9468 272.944 113.285 268.03C130.367 261.712 139.142 256.33 148.97 246.502L155.405 239.95H222.797C298.73 239.95 296.624 240.184 306.803 231.058C310.196 228.016 313.589 223.453 315.227 219.826L318.035 213.625V145.18V76.7348L314.642 69.9488C311.132 62.6948 304.346 56.6108 298.496 55.4408L295.22 54.7388V43.8578C295.22 18.4688 284.807 5.01375 262.46 1.38675C251.462 -0.485245 52.6788 -0.134245 42.4998 1.73775ZM266.555 28.8818C268.544 30.4028 269.012 32.2748 269.246 41.6348L269.714 52.7498H150.374H30.9168L29.1618 50.1758C26.7048 46.6658 26.8218 45.1448 29.7468 38.9438C31.5018 35.5508 34.0758 32.6258 37.5858 30.4028L42.9678 27.0098H153.533C250.409 27.1268 264.449 27.3608 266.555 28.8818ZM104.627 112.888C116.561 115.696 133.175 125.056 140.078 132.778C154.937 149.509 161.021 164.485 161.021 184.96C160.904 206.254 154.352 222.049 139.142 237.025C124.4 251.65 107.786 258.67 87.5448 258.67C67.4208 258.67 51.0408 251.767 35.9478 237.025C28.3428 229.537 25.4178 225.676 21.5568 217.72C7.75084 189.523 12.6648 156.178 33.8418 133.948C43.3188 124.12 58.0608 115.696 70.5798 112.888C79.2378 111.016 96.6708 111.016 104.627 112.888ZM267.14 131.725C272.522 134.533 275.33 139.447 275.33 146.35C275.33 149.626 274.745 153.487 273.926 154.891C267.842 166.474 250.058 166.474 243.974 154.891C241.751 150.913 242.219 141.553 244.793 137.692C249.59 130.438 259.418 127.747 267.14 131.725Z" fill="#01AB6B"/>
<path d="M82.6307 133.48C77.3657 135.586 76.4297 139.915 76.4297 162.73C76.4297 175.951 76.8977 184.96 77.7167 186.481C78.4187 187.885 85.0877 195.256 92.5757 202.744C106.148 216.433 106.265 216.55 111.764 216.55C116.21 216.55 117.614 215.965 119.603 213.508C124.4 207.424 123.23 204.499 110.36 191.395L98.6597 179.578V161.326C98.6597 141.202 97.4897 136.054 92.2247 133.714C88.7147 132.076 86.2577 132.076 82.6307 133.48Z" fill="#01AB6B"/>
</svg>
